<mxfile host="Electron" modified="2024-04-29T01:49:33.548Z" agent="Mozilla/5.0 (X11; Linux x86_64) AppleWebKit/537.36 (KHTML, like Gecko) draw.io/23.1.5 Chrome/120.0.6099.109 Electron/28.1.0 Safari/537.36" etag="IkzFezSL4QCieVY0Fdy0" version="23.1.5" type="device">
  <diagram name="Page-1" id="-YH83LvKdpUzL9TKeTth">
    <mxGraphModel dx="1035" dy="1056" grid="0" gridSize="10" guides="1" tooltips="1" connect="1" arrows="1" fold="1" page="0" pageScale="1" pageWidth="850" pageHeight="1100" math="0" shadow="0">
      <root>
        <mxCell id="0" />
        <mxCell id="1" parent="0" />
        <mxCell id="8Y7jkCwvChBiqPgJut8g-17" value="" style="rounded=0;whiteSpace=wrap;html=1;" vertex="1" parent="1">
          <mxGeometry x="106" y="-175" width="585" height="448" as="geometry" />
        </mxCell>
        <mxCell id="8Y7jkCwvChBiqPgJut8g-1" value="" style="group" vertex="1" connectable="0" parent="1">
          <mxGeometry x="303" y="1" width="189" height="142" as="geometry" />
        </mxCell>
        <mxCell id="8Y7jkCwvChBiqPgJut8g-2" value="&lt;font style=&quot;font-size: 19px;&quot;&gt;Product&lt;/font&gt;" style="rounded=0;whiteSpace=wrap;html=1;" vertex="1" parent="8Y7jkCwvChBiqPgJut8g-1">
          <mxGeometry width="189" height="41" as="geometry" />
        </mxCell>
        <mxCell id="8Y7jkCwvChBiqPgJut8g-3" value="&lt;div style=&quot;font-size: 14px;&quot; align=&quot;left&quot;&gt;&lt;font style=&quot;font-size: 14px;&quot;&gt;&amp;nbsp;ID PK&lt;/font&gt;&lt;/div&gt;&lt;div style=&quot;font-size: 14px;&quot; align=&quot;left&quot;&gt;&amp;nbsp;unite_id*&lt;br&gt;&lt;/div&gt;&lt;div style=&quot;font-size: 14px;&quot; align=&quot;left&quot;&gt;&amp;nbsp;brand_id*&lt;/div&gt;&lt;div style=&quot;font-size: 14px;&quot; align=&quot;left&quot;&gt;&amp;nbsp;category_id*&lt;/div&gt;&lt;div style=&quot;font-size: 14px;&quot; align=&quot;left&quot;&gt;&lt;font style=&quot;font-size: 14px;&quot;&gt;&amp;nbsp;...Product data&lt;br&gt;&lt;/font&gt;&lt;/div&gt;" style="rounded=0;whiteSpace=wrap;html=1;align=left;" vertex="1" parent="8Y7jkCwvChBiqPgJut8g-1">
          <mxGeometry y="41" width="189" height="101" as="geometry" />
        </mxCell>
        <mxCell id="8Y7jkCwvChBiqPgJut8g-4" value="" style="group" vertex="1" connectable="0" parent="1">
          <mxGeometry x="129" y="156" width="189" height="103" as="geometry" />
        </mxCell>
        <mxCell id="8Y7jkCwvChBiqPgJut8g-5" value="&lt;font style=&quot;font-size: 19px;&quot;&gt;Unite&lt;/font&gt;" style="rounded=0;whiteSpace=wrap;html=1;" vertex="1" parent="8Y7jkCwvChBiqPgJut8g-4">
          <mxGeometry width="189" height="41" as="geometry" />
        </mxCell>
        <mxCell id="8Y7jkCwvChBiqPgJut8g-6" value="&lt;div style=&quot;font-size: 14px;&quot; align=&quot;left&quot;&gt;&lt;font style=&quot;font-size: 14px;&quot;&gt;&amp;nbsp;ID PK&lt;br&gt;&lt;/font&gt;&lt;/div&gt;&lt;div style=&quot;font-size: 14px;&quot; align=&quot;left&quot;&gt;&lt;font style=&quot;font-size: 14px;&quot;&gt;&amp;nbsp;Label&lt;/font&gt;&lt;/div&gt;" style="rounded=0;whiteSpace=wrap;html=1;align=left;" vertex="1" parent="8Y7jkCwvChBiqPgJut8g-4">
          <mxGeometry y="41" width="189" height="52" as="geometry" />
        </mxCell>
        <mxCell id="8Y7jkCwvChBiqPgJut8g-7" style="edgeStyle=orthogonalEdgeStyle;rounded=0;orthogonalLoop=1;jettySize=auto;html=1;entryX=0;entryY=0.25;entryDx=0;entryDy=0;endArrow=ERmany;endFill=0;exitX=0.693;exitY=0;exitDx=0;exitDy=0;exitPerimeter=0;" edge="1" parent="1" source="8Y7jkCwvChBiqPgJut8g-5" target="8Y7jkCwvChBiqPgJut8g-3">
          <mxGeometry relative="1" as="geometry" />
        </mxCell>
        <mxCell id="8Y7jkCwvChBiqPgJut8g-9" value="" style="group" vertex="1" connectable="0" parent="1">
          <mxGeometry x="479" y="156" width="189" height="103" as="geometry" />
        </mxCell>
        <mxCell id="8Y7jkCwvChBiqPgJut8g-10" value="&lt;font style=&quot;font-size: 19px;&quot;&gt;Brand&lt;/font&gt;" style="rounded=0;whiteSpace=wrap;html=1;" vertex="1" parent="8Y7jkCwvChBiqPgJut8g-9">
          <mxGeometry width="189" height="41" as="geometry" />
        </mxCell>
        <mxCell id="8Y7jkCwvChBiqPgJut8g-11" value="&lt;div style=&quot;font-size: 14px;&quot; align=&quot;left&quot;&gt;&lt;font style=&quot;font-size: 14px;&quot;&gt;&amp;nbsp;ID PK&lt;br&gt;&lt;/font&gt;&lt;/div&gt;&lt;div style=&quot;font-size: 14px;&quot; align=&quot;left&quot;&gt;&lt;font style=&quot;font-size: 14px;&quot;&gt;&amp;nbsp;Name&lt;/font&gt;&lt;/div&gt;" style="rounded=0;whiteSpace=wrap;html=1;align=left;" vertex="1" parent="8Y7jkCwvChBiqPgJut8g-9">
          <mxGeometry y="41" width="189" height="52" as="geometry" />
        </mxCell>
        <mxCell id="8Y7jkCwvChBiqPgJut8g-12" style="edgeStyle=orthogonalEdgeStyle;rounded=0;orthogonalLoop=1;jettySize=auto;html=1;entryX=1;entryY=0.25;entryDx=0;entryDy=0;endArrow=ERmany;endFill=0;" edge="1" parent="1" source="8Y7jkCwvChBiqPgJut8g-10" target="8Y7jkCwvChBiqPgJut8g-3">
          <mxGeometry relative="1" as="geometry" />
        </mxCell>
        <mxCell id="8Y7jkCwvChBiqPgJut8g-13" value="" style="group" vertex="1" connectable="0" parent="1">
          <mxGeometry x="303" y="-154" width="189" height="103" as="geometry" />
        </mxCell>
        <mxCell id="8Y7jkCwvChBiqPgJut8g-14" value="&lt;font style=&quot;font-size: 19px;&quot;&gt;Category&lt;/font&gt;" style="rounded=0;whiteSpace=wrap;html=1;" vertex="1" parent="8Y7jkCwvChBiqPgJut8g-13">
          <mxGeometry width="189" height="41" as="geometry" />
        </mxCell>
        <mxCell id="8Y7jkCwvChBiqPgJut8g-15" value="&lt;div style=&quot;font-size: 14px;&quot; align=&quot;left&quot;&gt;&lt;font style=&quot;font-size: 14px;&quot;&gt;&amp;nbsp;ID PK&lt;br&gt;&lt;/font&gt;&lt;/div&gt;&lt;div style=&quot;font-size: 14px;&quot; align=&quot;left&quot;&gt;&lt;font style=&quot;font-size: 14px;&quot;&gt;&amp;nbsp;Name&lt;/font&gt;&lt;/div&gt;" style="rounded=0;whiteSpace=wrap;html=1;align=left;" vertex="1" parent="8Y7jkCwvChBiqPgJut8g-13">
          <mxGeometry y="41" width="189" height="52" as="geometry" />
        </mxCell>
        <mxCell id="8Y7jkCwvChBiqPgJut8g-16" value="" style="edgeStyle=orthogonalEdgeStyle;rounded=0;orthogonalLoop=1;jettySize=auto;html=1;endArrow=ERmany;endFill=0;" edge="1" parent="1" source="8Y7jkCwvChBiqPgJut8g-15" target="8Y7jkCwvChBiqPgJut8g-2">
          <mxGeometry relative="1" as="geometry" />
        </mxCell>
      </root>
    </mxGraphModel>
  </diagram>
</mxfile>
